<?xml version="1.0" encoding="UTF-8"?>
<!DOCTYPE svg PUBLIC "-//W3C//DTD SVG 1.1//EN" "http://www.w3.org/Graphics/SVG/1.1/DTD/svg11.dtd">
<svg xmlns="http://www.w3.org/2000/svg" xml:space="preserve" width="60mm" height="60mm" version="1.1" style="shape-rendering:geometricPrecision; text-rendering:geometricPrecision; image-rendering:optimizeQuality; fill-rule:evenodd; clip-rule:evenodd"
viewBox="0 0 6000 6000"
 xmlns:xlink="http://www.w3.org/1999/xlink">
 <defs>
  <style type="text/css">
   <![CDATA[
    .fil0 {fill:#E31E24}
    .fil1 {fill:#FEFEFE;fill-rule:nonzero}
   ]]>
  </style>
 </defs>
 <g id="Layer_x0020_1">
  <metadata id="CorelCorpID_0Corel-Layer"/>
  <polygon class="fil0" points="5,5 5995,5 5995,5995 5,5995 "/>
  <g id="_354931867008">
   <path class="fil1" d="M1467 4650l175 158 0 -158 44 0 0 263 0 0 0 0 -175 -157 0 157 -44 0 0 -263zm427 0c36,0 67,13 92,39 26,26 39,57 39,93 0,37 -13,68 -39,93 -25,25 -56,38 -92,38 -37,0 -68,-13 -93,-38 -26,-26 -39,-57 -39,-93 0,-36 13,-67 39,-93 25,-26 56,-39 93,-39zm0 44c-24,0 -45,9 -63,26 -16,17 -25,38 -25,62 0,24 9,45 25,62 18,17 39,25 63,25 24,0 44,-8 61,-25 17,-17 26,-38 26,-62 0,-24 -9,-45 -26,-62 -17,-17 -37,-26 -61,-26zm339 -44c36,0 67,13 93,39 26,26 39,57 39,93 0,37 -13,68 -39,93 -26,25 -57,38 -93,38 -37,0 -68,-13 -93,-38 -26,-26 -39,-57 -39,-93 0,-36 13,-67 39,-93 25,-26 56,-39 93,-39zm0 44c-24,0 -45,9 -62,26 -17,17 -26,38 -26,62 0,24 9,45 26,62 17,17 38,25 62,25 24,0 44,-8 61,-25 18,-17 26,-38 26,-62 0,-24 -8,-45 -26,-62 -17,-17 -37,-26 -61,-26zm207 -44l88 0c18,0 35,4 51,11 16,7 29,16 41,28 12,12 22,26 29,42 7,16 10,33 10,51 0,18 -3,35 -10,51 -7,16 -16,30 -28,42 -12,12 -26,21 -42,28 -16,7 -33,10 -51,10l-88 0 0 -263zm88 219c12,0 23,-2 34,-6 11,-5 20,-11 28,-19 8,-8 14,-18 19,-28 4,-11 6,-22 6,-34 0,-12 -2,-23 -6,-34 -5,-10 -11,-20 -19,-28 -8,-8 -18,-14 -28,-19 -11,-4 -22,-7 -34,-7l-44 0 0 175 44 0zm207 -219l44 0 0 219 131 0 0 44 -175 0 0 -263zm426 0l0 44 -132 0 0 66 132 0 0 44 -132 0 0 65 132 0 0 44 -175 0 0 -263 175 0zm152 154c-21,0 -39,-8 -54,-22 -15,-15 -22,-34 -22,-55 0,-21 7,-39 22,-54 15,-15 33,-23 54,-23l143 0 0 44 -143 0c-4,0 -9,1 -13,3 -4,1 -7,4 -10,7 -3,3 -6,6 -7,10 -2,5 -3,9 -3,13 0,9 3,17 10,23 6,7 14,10 23,10l66 0c21,0 39,8 54,23 15,15 23,33 23,54 0,21 -8,39 -23,54 -15,15 -33,22 -54,22l-142 0 0 -44 142 0c4,0 9,0 13,-2 4,-2 7,-4 10,-7 3,-3 6,-6 7,-10 2,-4 3,-9 3,-13 0,-9 -4,-17 -10,-23 -6,-7 -14,-10 -23,-10l-66 0zm476 -110l-99 0 0 66 99 0c4,0 8,-1 12,-2 5,-2 8,-5 11,-8 3,-3 6,-6 7,-10 2,-4 3,-9 3,-13 0,-4 -1,-8 -3,-13 -1,-4 -4,-7 -7,-10 -3,-3 -6,-6 -11,-7 -4,-2 -8,-3 -12,-3zm53 88c16,15 24,33 24,55 0,10 -3,20 -7,29 -4,10 -9,18 -16,25 -7,7 -15,12 -24,16 -10,4 -20,6 -30,6l-142 0 0 -263 142 0c10,0 20,3 29,7 10,4 18,9 25,16 7,7 12,15 16,24 4,10 7,20 7,30 0,21 -8,40 -24,55zm-53 87c4,0 8,0 12,-2 5,-2 8,-4 11,-7 3,-3 6,-7 7,-11 2,-4 3,-8 3,-12 0,-4 -1,-9 -3,-13 -1,-4 -4,-7 -7,-10 -3,-3 -6,-6 -10,-7 -4,-2 -8,-3 -13,-3l-99 0 0 65 99 0zm223 -43l77 0 -38 -77 -39 77zm99 43l-120 0 -23 44 -49 0 132 -263 131 263 -49 0 -22 -44zm278 -175l-87 0 0 88 87 0c12,0 23,-4 31,-13 9,-9 13,-19 13,-31 0,-12 -4,-22 -13,-31 -8,-8 -19,-13 -31,-13zm38 219l-51 -87 -74 0 0 87 -44 0 0 -263 131 0c24,0 45,9 62,26 17,17 26,38 26,62 0,18 -5,35 -16,50 -10,14 -23,25 -38,31l54 94 -50 0z"/>
   <path class="fil1" d="M3468 1013c0,-6 0,-13 2,-20 1,-6 3,-13 5,-19l0 0c3,-6 6,-12 9,-18 4,-5 8,-11 13,-16 6,-6 12,-11 19,-15l0 0c6,-5 13,-8 20,-10 7,-3 14,-4 21,-5 7,-1 14,-1 21,-1l8 0 13 0 0 14 0 7 0 0 0 45 0 8 0 13 -13 0 -8 0 -2 0 0 0 0 0c-7,0 -12,0 -16,4 0,1 -1,2 -2,3 0,1 -1,3 -1,4l-1 0c0,1 0,2 -1,4l0 0c0,1 0,2 0,3l0 1c-2,45 10,103 22,164 11,56 22,115 24,167 0,7 -1,14 -2,21 -1,8 -3,15 -6,22 -2,7 -6,13 -10,20l0 0c-3,6 -8,12 -13,17 -5,6 -10,11 -16,15 -6,4 -12,8 -19,11l0 0c-6,3 -13,5 -20,7 -7,2 -14,3 -21,3l-14 0 0 0 -6 0 -14 0 0 -14 0 -7 0 -46 0 -7 0 -15 14 1 8 0c3,0 6,0 9,0 2,0 4,0 6,-1 1,0 3,-1 4,-2 2,-1 3,-2 5,-4l0 0c1,-2 3,-3 3,-5 1,-1 2,-3 3,-5l0 0c1,-1 1,-3 1,-5l0 0c1,-2 1,-3 1,-5 -3,-49 -13,-104 -23,-158 -12,-62 -23,-123 -23,-176l0 0zm-1179 0c0,-6 1,-13 2,-20 1,-6 3,-13 6,-19 2,-6 5,-12 9,-18 4,-5 8,-11 12,-16 7,-6 13,-11 19,-15 7,-5 13,-8 20,-10 7,-3 14,-4 21,-5 7,-1 14,-1 22,-1l7 0 14 0 0 14 0 7 0 45 0 8 0 13 -14 0 -7 0 -2 0 0 0 0 0c-7,0 -12,0 -16,4 -1,1 -1,2 -2,3 -1,1 -1,3 -2,4l0 0c0,1 -1,2 -1,4l0 0c0,1 -1,2 -1,3l0 1c-1,45 10,103 22,164 11,56 23,115 24,167 1,7 0,14 -1,21 -1,8 -3,15 -6,22 -3,7 -6,13 -10,20 -4,6 -8,12 -13,17 -5,6 -11,11 -17,15 -6,4 -12,8 -18,11 -7,3 -13,5 -20,7 -7,2 -14,3 -22,3l-13 0 0 0 -7 0 -13 0 0 -14 0 -7 0 -46 -1 -7 0 -15 15 1 7 0c4,0 7,0 10,0 2,0 4,0 6,-1 1,0 2,-1 4,-2 1,-1 3,-2 5,-4l0 0c1,-2 2,-3 3,-5 1,-1 2,-3 2,-5l0 0c1,-1 2,-3 2,-5l0 0c0,-2 0,-3 1,-5 -3,-50 -14,-104 -24,-158 -11,-62 -23,-123 -23,-176l0 0zm575 -239c0,-8 1,-16 3,-24 1,-8 4,-16 7,-23l0 0c3,-8 7,-15 11,-22 4,-7 9,-14 15,-20 8,-8 15,-14 23,-19 8,-5 16,-9 24,-12 9,-3 17,-4 26,-5 8,-1 17,-2 27,-2l0 0 9 0 13 0 0 14 0 9 0 57 0 9 1 14 -14 0 -9 0 0 0 -3 0 0 0 0 0c-10,0 -17,0 -22,6 -1,1 -3,2 -3,4 -2,2 -2,3 -3,5l0 0c-1,1 -1,3 -2,5 0,2 0,4 0,6 -3,56 12,130 27,206 14,71 28,144 30,209 1,9 0,18 -2,26 -1,9 -4,18 -7,27 -3,8 -7,16 -12,24 -5,8 -10,15 -16,22 -6,6 -13,12 -20,17 -7,5 -15,10 -23,14 -8,3 -16,6 -25,8 -8,2 -16,3 -25,4l-14 0 0 0 0 0 0 0 -1 0 -2 0 0 0 -8 0 -14 0 0 -14 0 -9 0 -58 0 -9 0 -14 14 0 9 1c5,0 9,0 13,0 3,0 5,-1 8,-1 2,-1 4,-2 6,-3 2,-2 4,-4 7,-7l0 0c1,-2 3,-4 4,-6 1,-2 3,-4 4,-7l0 0c0,-2 1,-4 2,-7 0,-2 0,-4 0,-6 -3,-63 -16,-132 -29,-199 -14,-78 -28,-155 -28,-220l-1 0zm1520 832l2 0 0 0c30,0 55,7 73,22 40,33 37,105 3,141 -17,17 -40,27 -65,27 -25,0 -47,-12 -64,-30 -13,-16 -23,-35 -26,-56 -116,4 -225,0 -341,-1 -204,365 -609,544 -1088,546 -479,2 -947,-241 -1123,-650l2629 1zm-2916 737c0,-87 35,-167 91,-224 57,-58 135,-93 221,-93l14 0 0 14 0 107 0 14 -14 0c-49,0 -92,20 -123,52 -33,33 -53,80 -55,131 -6,149 54,543 112,927 51,335 101,664 105,818 0,4 0,7 0,9 0,96 -39,182 -101,245 -62,63 -147,102 -241,105 -5,0 -8,0 -10,0l-13 0 0 -14 0 -108 0 -14 13 0c61,0 116,-24 155,-65 39,-40 64,-96 64,-158 0,-153 -53,-499 -107,-849 -55,-362 -111,-728 -111,-897zm535 2091l0 -2115 0 -14 14 0c126,0 259,57 335,159 53,69 80,158 80,261 0,107 -29,212 -85,296 -49,75 -120,133 -210,160l0 1253 0 14 -14 0 -106 0 -14 0 0 -14zm134 -1970l0 575c49,-23 85,-61 111,-107 34,-60 50,-134 50,-207 0,-67 -14,-124 -43,-168 -26,-40 -64,-71 -118,-93zm598 17l0 1953 0 14 -14 0 -107 0 -13 0 0 -14 0 -1953 0 -14 13 0 107 0 14 0 0 14zm665 1967l-106 0 -14 0 0 -14c0,-117 1,-504 1,-892 0,-316 0,-627 0,-891 0,-42 -45,-88 -92,-88 -50,0 -92,39 -92,88 0,236 0,561 1,889 0,377 1,754 1,894l0 14 -14 0 -106 0 -14 0 0 -14c0,-588 0,-681 0,-888l-1 -888c0,-122 99,-221 221,-221 122,0 229,99 229,221l-1 1776 0 14 -13 0zm381 -1727c46,-15 86,-42 117,-77 51,-58 61,-118 61,-178 0,-33 0,-69 -1,-125l0 -26 0 -14 14 0 99 0 13 0 0 14c1,65 6,147 2,209 -5,76 -50,179 -104,233 14,90 36,481 62,863 26,367 51,729 63,817l3 16 -16 0 -103 0 -12 0 -1 -13 -109 -1609c-26,16 -60,37 -88,49l0 1554 0 14 -14 0 -105 0 -14 0 0 -14c0,-182 0,-554 1,-954 1,-452 2,-924 3,-1165l0 -14 13 0 104 0 14 0 0 14c0,54 -1,97 -1,137 0,84 -1,149 -1,269zm916 -689c-5,65 -31,123 -71,169 -39,43 -91,75 -149,88l0 2153 0 13 -14 0 -100 0 -14 0 0 -13 0 -2153c-59,-13 -110,-45 -149,-88 -40,-46 -67,-104 -71,-169l-1 -15 15 0 36 0 40 0 26 0 13 0 1 13c4,39 23,74 50,99 28,25 64,40 104,40 40,0 76,-15 104,-40 27,-25 46,-60 50,-99l1 -13 12 0 26 0 41 0 36 0 15 0 -1 15zm-2727 -322c145,287 510,429 901,431 390,1 789,-143 932,-430l-1833 -1z"/>
  </g>
 </g>
</svg>
